<svg xmlns="http://www.w3.org/2000/svg" xmlns:xlink="http://www.w3.org/1999/xlink" preserveAspectRatio="xMidYMid" width="88" height="88" viewBox="0 0 88 88">
  <defs>
    <style>
      .cls-1 {
        fill: #0f87e6;
      }

      .cls-2 {
        fill: #fff;
        fill-rule: evenodd;
      }
    </style>
  </defs>
  <rect width="88" height="88" rx="26" ry="26" class="cls-1"/>
  <path d="M65.434,41.802 L65.134,41.802 L65.134,23.437 C65.134,21.914 63.476,21.000 61.973,21.000 L26.168,21.000 C24.664,21.000 23.007,21.914 23.007,23.437 L23.007,41.802 L22.706,41.802 C21.202,41.802 20.000,42.716 20.000,44.239 L20.000,64.344 C20.000,65.867 21.349,68.000 22.706,68.000 L65.287,68.000 C66.791,68.000 67.994,65.712 67.994,64.344 L67.994,44.239 C68.141,42.716 66.791,41.802 65.434,41.802 ZM60.469,41.802 L27.524,41.802 L27.524,25.833 C27.524,24.459 27.979,24.155 29.328,24.155 L58.665,24.155 C60.168,24.155 60.469,24.459 60.469,25.833 L60.469,41.802 ZM57.008,28.088 L31.133,28.088 C30.231,28.088 29.629,28.697 29.629,29.611 C29.629,30.525 30.384,31.134 31.133,31.134 L57.008,31.134 C57.910,31.134 58.511,30.525 58.511,29.611 C58.511,28.697 57.910,28.088 57.008,28.088 L57.008,28.088 ZM57.008,35.703 L31.133,35.703 C30.231,35.703 29.629,36.312 29.629,37.226 C29.629,38.140 30.384,38.749 31.133,38.749 L57.008,38.749 C57.910,38.749 58.511,38.140 58.511,37.226 C58.511,36.319 57.910,35.703 57.008,35.703 L57.008,35.703 Z" class="cls-2"/>
</svg>
