<svg xmlns="http://www.w3.org/2000/svg" xmlns:xlink="http://www.w3.org/1999/xlink" preserveAspectRatio="xMidYMid" width="88" height="88" viewBox="0 0 88 88">
  <defs>
    <style>
      .cls-1 {
        fill: #ff7043;
      }

      .cls-2 {
        fill: #fff;
        fill-rule: evenodd;
      }
    </style>
  </defs>
  <rect width="88" height="88" rx="26" ry="26" class="cls-1"/>
  <path d="M55.379,28.375 C56.636,28.375 57.655,27.325 57.655,26.031 L57.655,21.344 C57.655,20.050 56.636,19.000 55.379,19.000 C54.123,19.000 53.103,20.050 53.103,21.344 L53.103,26.031 C53.103,27.325 54.123,28.375 55.379,28.375 ZM44.000,28.375 C45.256,28.375 46.276,27.325 46.276,26.031 L46.276,21.344 C46.276,20.050 45.256,19.000 44.000,19.000 C42.744,19.000 41.724,20.050 41.724,21.344 L41.724,26.031 C41.724,27.325 42.744,28.375 44.000,28.375 ZM63.724,23.687 L59.931,23.687 L59.931,26.031 C59.931,28.620 57.893,30.719 55.379,30.719 C52.866,30.719 50.827,28.619 50.827,26.031 L50.827,23.687 L48.552,23.687 L48.552,26.031 C48.552,28.620 46.514,30.719 44.000,30.719 C41.486,30.719 39.448,28.619 39.448,26.031 L39.448,23.687 L37.172,23.687 L37.172,26.031 C37.172,28.620 35.134,30.719 32.620,30.719 C30.107,30.719 28.069,28.619 28.069,26.031 L28.069,23.687 L24.275,23.687 C23.019,23.687 21.999,24.737 21.999,26.031 L21.999,66.656 C21.999,67.950 23.019,69.000 24.275,69.000 L63.724,69.000 C64.981,69.000 66.000,67.950 66.000,66.656 L66.000,26.031 C66.000,24.737 64.981,23.687 63.724,23.687 ZM58.035,61.187 L29.965,61.187 C28.917,61.187 28.069,60.313 28.069,59.234 C28.069,58.155 28.917,57.281 29.965,57.281 L58.035,57.281 C59.082,57.281 59.931,58.155 59.931,59.234 C59.931,60.313 59.082,61.187 58.035,61.187 ZM57.655,51.812 L30.344,51.812 C29.088,51.812 28.069,50.762 28.069,49.469 C28.069,48.175 29.088,47.125 30.344,47.125 L57.655,47.125 C58.911,47.125 59.931,48.175 59.931,49.469 C59.931,50.762 58.911,51.812 57.655,51.812 ZM57.655,41.656 L30.344,41.656 C29.088,41.656 28.069,40.606 28.069,39.312 C28.069,38.019 29.088,36.969 30.344,36.969 L57.655,36.969 C58.911,36.969 59.931,38.019 59.931,39.312 C59.931,40.606 58.911,41.656 57.655,41.656 ZM32.620,28.375 C33.877,28.375 34.896,27.325 34.896,26.031 L34.896,21.344 C34.896,20.050 33.877,19.000 32.620,19.000 C31.364,19.000 30.344,20.050 30.344,21.344 L30.344,26.031 C30.344,27.325 31.364,28.375 32.620,28.375 Z" class="cls-2"/>
</svg>
