<svg xmlns="http://www.w3.org/2000/svg" xmlns:xlink="http://www.w3.org/1999/xlink" preserveAspectRatio="xMidYMid" width="88" height="88" viewBox="0 0 88 88">
  <defs>
    <style>
      .cls-1 {
        fill: #ffa726;
      }

      .cls-2 {
        fill: #fff;
        fill-rule: evenodd;
      }
    </style>
  </defs>
  <rect width="88" height="88" rx="26" ry="26" class="cls-1"/>
  <path d="M66.770,26.827 L63.061,22.434 C62.320,21.520 61.189,20.992 59.997,21.002 L27.998,21.002 C26.749,21.002 25.654,21.552 24.902,22.434 L21.226,26.827 C20.455,27.718 20.000,28.888 20.000,30.138 L20.000,62.784 C20.000,65.650 22.405,68.000 25.338,68.000 L62.660,68.000 C65.593,68.000 67.999,65.650 67.999,62.784 L67.999,30.138 C68.000,28.927 67.565,27.755 66.770,26.827 L66.770,26.827 ZM43.998,57.786 L33.052,47.064 L40.019,47.064 L40.019,37.011 L47.980,37.011 L47.980,47.064 L54.947,47.064 L43.998,57.786 ZM40.000,35.107 L40.000,33.010 L47.886,33.010 L47.886,35.107 L40.000,35.107 ZM25.651,26.224 L27.813,23.610 L59.803,23.610 L62.321,26.224 L25.651,26.224 Z" class="cls-2"/>
</svg>
